<svg xmlns="http://www.w3.org/2000/svg" width="18.303" height="24.404" viewBox="0 0 18.303 24.404"><defs><style>.a{fill:#21388b;}</style></defs><g transform="translate(0 0)"><path class="a" d="M926.81,679.652a1.087,1.087,0,0,0-.042-.136c-.008-.026-.013-.053-.024-.078a1.136,1.136,0,0,0-.077-.144c-.01-.017-.017-.035-.028-.052a1.173,1.173,0,0,0-.143-.174l-5.336-5.336a1.135,1.135,0,0,0-.174-.143c-.013-.009-.028-.015-.042-.023a1.138,1.138,0,0,0-.155-.083c-.021-.009-.044-.013-.066-.02a1.085,1.085,0,0,0-.148-.045,1.139,1.139,0,0,0-.226-.023H909.674a1.144,1.144,0,0,0-1.144,1.144v22.116a1.144,1.144,0,0,0,1.144,1.144h16.015a1.144,1.144,0,0,0,1.144-1.144V679.878A1.148,1.148,0,0,0,926.81,679.652Zm-5.315-2.35,1.432,1.433h-1.432Zm-10.677,18.21V675.684h8.389v4.194a1.144,1.144,0,0,0,1.144,1.144h4.194v14.49Z" transform="translate(-908.53 -673.396)"/><path class="a" d="M919.891,699.684h4.327a1.144,1.144,0,0,0,0-2.288h-4.327a1.144,1.144,0,1,0,0,2.288Z" transform="translate(-914.851 -688.245)"/><path class="a" d="M928.545,708.4h-8.654a1.144,1.144,0,1,0,0,2.288h8.654a1.144,1.144,0,0,0,0-2.288Z" transform="translate(-914.851 -695.05)"/><path class="a" d="M928.545,720.4h-8.654a1.144,1.144,0,1,0,0,2.288h8.654a1.144,1.144,0,0,0,0-2.288Z" transform="translate(-914.851 -702.475)"/></g></svg>