<svg xmlns="http://www.w3.org/2000/svg" width="162.527" height="33.86" viewBox="0 0 162.527 33.86"><defs><style>.a{fill:#fff;}</style></defs><g transform="translate(0)"><path class="a" d="M392.92,770.172h11.662v2.981h-7.45v2.425h6.441v2.8h-6.441v5.671H392.92Z" transform="translate(-365.528 -759.444)"/><path class="a" d="M429.186,773.148v-2.986H417.519v0h-.009v13.878h11.663v-2.981h-7.441v-2.69h4.926v-2.8h-4.926v-2.423Z" transform="translate(-376.357 -759.44)"/><path class="a" d="M607.56,770.208l-2.457,4.684-2.445-4.684H598.48l4.5,8.068v5.812h4.21v-5.812l4.515-8.068Z" transform="translate(-456.063 -759.46)"/><path class="a" d="M466.472,770.117h4.167l2.459,4.69,2.452-4.69h4.15l-4.524,8.064V784H470.97v-5.823Z" transform="translate(-397.922 -759.42)"/><path class="a" d="M567.177,771.293a4.915,4.915,0,0,0-3.507-1.111h-6.976v13.883h4.141v-5.152h2.355a5.529,5.529,0,0,0,3.882-1.179,4.277,4.277,0,0,0,1.27-3.287A4.14,4.14,0,0,0,567.177,771.293Zm-3.536,4.381a2.056,2.056,0,0,1-1.15.4c-.181.017-.379.031-.6.031h-1.06v-3.093h1.229c.154,0,.3,0,.426.011a1.833,1.833,0,0,1,1.219.44,1.528,1.528,0,0,1,.436,1.111A1.385,1.385,0,0,1,563.64,775.674Z" transform="translate(-437.658 -759.448)"/><path class="a" d="M441.552,770.182h12.8l-.011,2.977h-4.3l.015,10.907h-4.21l-.016-10.907h-4.3Z" transform="translate(-386.938 -759.448)"/><path class="a" d="M375.817,770.156h-4.09l-4.568,13.878h4.216l.588-2.287h3.611l.6,2.287h4.21Zm-1.693,8.584h-1.347l.956-4.988.051.241v0l.1.472,0,.018h0l.9,4.254Z" transform="translate(-354.181 -759.437)"/><path class="a" d="M584.661,770.182h-4.089l-4.564,13.887h4.208l.592-2.292h3.611l.6,2.292h4.221Zm-2.036,8.591h-1.012l.965-4.99.047.243,1.008,4.746Z" transform="translate(-446.165 -759.448)"/><path class="a" d="M343.967,779.282h4.048a2.433,2.433,0,0,0,.519,1.337,2.285,2.285,0,0,0,1.891.81,2.173,2.173,0,0,0,1.412-.414,1.237,1.237,0,0,0,.49-.966,1.216,1.216,0,0,0-.465-.937,5.671,5.671,0,0,0-2.2-.774,9.412,9.412,0,0,1-4.012-1.631,3.245,3.245,0,0,1-1.219-2.586,3.418,3.418,0,0,1,.625-1.958,4.055,4.055,0,0,1,1.86-1.453,8.928,8.928,0,0,1,3.407-.527,7.194,7.194,0,0,1,4.052.955,4.236,4.236,0,0,1,1.662,3.1h-4.076a1.62,1.62,0,0,0-.641-1.148,2.227,2.227,0,0,0-1.419-.407,1.76,1.76,0,0,0-1.13.307.933.933,0,0,0-.378.746.74.74,0,0,0,.312.578,3.585,3.585,0,0,0,1.439.491,18.774,18.774,0,0,1,4.018,1.188,4.157,4.157,0,0,1,1.767,1.486,3.694,3.694,0,0,1,.552,1.99,4.171,4.171,0,0,1-.734,2.379,4.531,4.531,0,0,1-2.061,1.655,8.552,8.552,0,0,1-3.334.561c-2.357,0-3.985-.439-4.9-1.318a5.334,5.334,0,0,1-1.495-3.465" transform="translate(-343.967 -759.448)"/><path class="a" d="M623.925,770.49h2.51v.663h-.848v2.009h-.818v-2.009h-.844Z" transform="translate(-467.269 -759.584)"/><path class="a" d="M629.059,770.49h1.081l.42,1.626.418-1.626h1.081v2.672h-.676v-2.036l-.519,2.036h-.612l-.518-2.036v2.036h-.674Z" transform="translate(-469.531 -759.584)"/><path class="a" d="M507.391,751l-16.93,16.93,16.93,16.93,16.93-16.93ZM504.1,778.24l-4.991-4.991,5.185-5.185-5.185-5.185,4.991-4.991,5.185,5.185,4.991,4.991Zm15.237-8.427-8.388,8.388-1.9-1.9,8.388-8.388-8.388-8.388,1.9-1.9,10.293,10.292-1.9,1.9Z" transform="translate(-408.488 -751)"/></g></svg>